<?xml version="1.0" encoding="utf-8"?>
<!-- Generator: Adobe Illustrator 27.2.0, SVG Export Plug-In . SVG Version: 6.00 Build 0)  -->
<svg version="1.1" id="Layer_1" xmlns="http://www.w3.org/2000/svg" xmlns:xlink="http://www.w3.org/1999/xlink" x="0px" y="0px"
	 viewBox="0 0 686.3 121" style="enable-background:new 0 0 686.3 121;" xml:space="preserve">
<style type="text/css">
	.st0{fill:#C22026;}
	.st1{fill:#FFFFFF;}
	.st2{fill:#2E3192;}
	.st3{opacity:0.26;}
	.st4{fill:#E6E7E7;}
	.st5{fill:#A8AAAD;}
	.st6{fill:url(#SVGID_1_);}
	.st7{fill:url(#SVGID_00000080206231310814414600000001090295552753881473_);}
	.st8{fill:#D1D3D4;}
	.st9{fill:#BE202E;}
	.st10{fill:#58595B;}
	.st11{fill:#939598;}
	.st12{fill:#6D6E71;}
	.st13{fill:url(#SVGID_00000011720757486181680050000003786049890559767735_);}
	.st14{fill:url(#SVGID_00000003794208938937880310000008909911617858034080_);}
	.st15{fill:url(#SVGID_00000023280632208519724610000011960788683610657199_);}
	.st16{fill:url(#SVGID_00000127045964463198376210000000201031549448016035_);}
	.st17{fill:url(#SVGID_00000035499615866317849900000002659314174681607102_);}
	.st18{fill:url(#SVGID_00000115481673401881312230000005967430172334378633_);}
	.st19{fill:url(#SVGID_00000075142831748826674160000014975246941443698049_);}
	.st20{fill:#010101;}
	.st21{fill:url(#SVGID_00000101061632546047812850000008049120069196663225_);}
	.st22{fill:#5C5D5F;}
	.st23{fill:#CF2027;}
	.st24{fill:#CD2027;}
	.st25{fill:#F4F3ED;}
	.st26{fill:#F7F7F7;}
	.st27{fill:#E52829;}
	.st28{fill:#A2B5BB;}
	.st29{fill:#E0DFDE;}
	.st30{fill:#D91F26;}
	.st31{fill:#A9A8A9;}
	.st32{fill:#C32026;}
	.st33{fill:#9B9A9A;}
	.st34{fill:#F4F4F5;}
	.st35{fill:#F47D3A;}
	.st36{fill:#F2C621;}
	.st37{fill:#EEEDEE;}
	.st38{fill:#FAA41A;}
	.st39{fill:#AAABAB;}
	.st40{fill:#EEEEEE;}
	.st41{fill:#C42026;}
	.st42{fill:#232323;}
	.st43{fill:#E2E2E2;}
	.st44{fill:#ED2024;}
	.st45{fill:#0362AC;}
	.st46{fill:#105D99;}
	.st47{fill:#76A7B6;}
	.st48{fill:#455D89;}
	.st49{fill:#7C491E;}
	.st50{fill:#F4A442;}
	.st51{fill:#5C5E60;}
	.st52{fill:#CD2027;stroke:#000000;stroke-width:5;stroke-miterlimit:10;}
	.st53{fill:#00AEEF;}
	.st54{opacity:0.58;fill:#BE1E2D;}
	.st55{opacity:0.61;fill:#BE1E2D;}
	.st56{fill:#BABABA;}
	.st57{fill:#8E8E8E;}
	.st58{fill:#BE1E2D;}
	.st59{fill:#606161;}
	.st60{fill:#5E5F5E;}
	.st61{fill:#BE6234;}
	.st62{fill:#71706B;}
</style>
<g>
	<g>
		<g>
			<polygon class="st0" points="238.2,113.7 213.7,113.7 179.3,52.4 144.9,113.7 120.4,113.7 179.3,8.6 179.3,8.6 179.3,8.6 			"/>
		</g>
		<g>
			<g>
				<g>
					<polygon class="st0" points="42.8,8.6 42.8,45.7 13.7,78.7 13.7,8.6 					"/>
				</g>
				<g>
					<polygon class="st0" points="42.8,85.2 42.8,113.7 17.6,113.7 42.8,85.2 					"/>
				</g>
				<g>
					<polygon class="st0" points="115.7,113.9 83.3,113.9 53.6,77.3 47.2,69.5 13.6,107.6 13.6,89.5 59.1,37.9 88.3,37.9 70.4,58.1 
											"/>
				</g>
				<g>
					<g>
						<path class="st0" d="M84.9,8.7L65.3,30.9h29.1L114,8.7H84.9z M89.6,23.6c-2.1,0-3.8-1.7-3.8-3.8s1.7-3.8,3.8-3.8
							c2.1,0,3.8,1.7,3.8,3.8S91.7,23.6,89.6,23.6z"/>
					</g>
				</g>
			</g>
		</g>
		<g>
			<path class="st0" d="M336.2,113.7h-28l-37.3-41.6l0,0h-21.4v41.5l-21.4-37.6V54.2h66.7c7.6,0,13.8-6.2,13.8-13.8
				c0-7.6-6.2-13.8-13.8-13.8h-66.7l0,0L218,8.6h81.2c17.5,0,31.8,14.2,31.8,31.8c0,17.5-14.2,31.8-31.8,31.8h-0.3l36.9,41.1
				L336.2,113.7z"/>
		</g>
		<g>
			<polygon class="st60" points="578.7,113.9 554.2,113.9 519.8,52.5 485.4,113.9 460.9,113.9 519.8,8.7 519.8,8.7 519.8,8.7 			"/>
		</g>
		<g>
			<path class="st60" d="M676.8,113.9h-28l-37.3-41.6l0,0h-21.4v41.5l-21.4-37.6V54.3h66.7c7.6,0,13.8-6.2,13.8-13.8
				c0-7.6-6.2-13.8-13.8-13.8h-66.7l0,0L558.6,8.7h81.2c17.5,0,31.8,14.2,31.8,31.8c0,17.5-14.2,31.8-31.8,31.8h-0.3l36.9,41.1
				L676.8,113.9z"/>
		</g>
		<g>
			<polygon class="st60" points="391.1,95.9 459.6,95.9 449.7,113.9 349.5,113.9 365.1,95.9 425.2,26.7 355.1,26.7 365.6,8.7 
				466.7,8.7 451.1,26.7 			"/>
		</g>
	</g>
</g>
</svg>
