<?xml version="1.0" encoding="utf-8"?>
<!-- Generator: Adobe Illustrator 27.2.0, SVG Export Plug-In . SVG Version: 6.00 Build 0)  -->
<svg version="1.1" id="Layer_1" xmlns="http://www.w3.org/2000/svg" xmlns:xlink="http://www.w3.org/1999/xlink" x="0px" y="0px"
	 viewBox="0 0 686.3 171.6" style="enable-background:new 0 0 686.3 171.6;" xml:space="preserve">
<style type="text/css">
	.st0{fill:#C22026;}
	.st1{fill:#FFFFFF;}
	.st2{fill:#2E3192;}
	.st3{opacity:0.26;}
	.st4{fill:#E6E7E7;}
	.st5{fill:#A8AAAD;}
	.st6{fill:url(#SVGID_1_);}
	.st7{fill:url(#SVGID_00000008869013579010129170000016265519180787970947_);}
	.st8{fill:#D1D3D4;}
	.st9{fill:#BE202E;}
	.st10{fill:#58595B;}
	.st11{fill:#939598;}
	.st12{fill:#6D6E71;}
	.st13{fill:url(#SVGID_00000147922273088907883960000001659904882799269037_);}
	.st14{fill:url(#SVGID_00000092437422264766634900000013930285746250582194_);}
	.st15{fill:url(#SVGID_00000102513933280268636690000016112677219063877547_);}
	.st16{fill:url(#SVGID_00000176737966096459516450000006410187633320091282_);}
	.st17{fill:url(#SVGID_00000023260209041224714240000012285174389779303848_);}
	.st18{fill:url(#SVGID_00000166633876641365562700000009700682546990564767_);}
	.st19{fill:url(#SVGID_00000054244955567898415570000011993966856176073360_);}
	.st20{fill:#010101;}
	.st21{fill:url(#SVGID_00000106845847494603637240000004495490476934073003_);}
	.st22{fill:#5C5D5F;}
	.st23{fill:#CF2027;}
	.st24{fill:#CD2027;}
	.st25{fill:#F4F3ED;}
	.st26{fill:#F7F7F7;}
	.st27{fill:#E52829;}
	.st28{fill:#A2B5BB;}
	.st29{fill:#E0DFDE;}
	.st30{fill:#D91F26;}
	.st31{fill:#A9A8A9;}
	.st32{fill:#C32026;}
	.st33{fill:#9B9A9A;}
	.st34{fill:#F4F4F5;}
	.st35{fill:#F47D3A;}
	.st36{fill:#F2C621;}
	.st37{fill:#EEEDEE;}
	.st38{fill:#FAA41A;}
	.st39{fill:#AAABAB;}
	.st40{fill:#EEEEEE;}
	.st41{fill:#C42026;}
	.st42{fill:#232323;}
	.st43{fill:#E2E2E2;}
	.st44{fill:#ED2024;}
	.st45{fill:#0362AC;}
	.st46{fill:#105D99;}
	.st47{fill:#76A7B6;}
	.st48{fill:#455D89;}
	.st49{fill:#7C491E;}
	.st50{fill:#F4A442;}
	.st51{fill:#5C5E60;}
	.st52{fill:#CD2027;stroke:#000000;stroke-width:5;stroke-miterlimit:10;}
	.st53{fill:#00AEEF;}
	.st54{opacity:0.58;fill:#BE1E2D;}
	.st55{opacity:0.61;fill:#BE1E2D;}
	.st56{fill:#BABABA;}
	.st57{fill:#8E8E8E;}
	.st58{fill:#BE1E2D;}
	.st59{fill:#606161;}
	.st60{fill:#5E5F5E;}
	.st61{fill:#BE6234;}
	.st62{fill:#71706B;}
</style>
<g>
	<g>
		<g>
			<polygon class="st0" points="238.2,113.7 213.7,113.7 179.3,52.4 144.9,113.7 120.4,113.7 179.3,8.6 179.3,8.6 179.3,8.6 			"/>
		</g>
		<g>
			<g>
				<g>
					<polygon class="st0" points="42.8,8.6 42.8,45.7 13.7,78.7 13.7,8.6 					"/>
				</g>
				<g>
					<polygon class="st0" points="42.8,85.2 42.8,113.7 17.6,113.7 42.8,85.2 					"/>
				</g>
				<g>
					<polygon class="st0" points="115.7,113.9 83.3,113.9 53.6,77.3 47.2,69.5 13.6,107.6 13.6,89.5 59.1,37.9 88.3,37.9 70.4,58.1 
											"/>
				</g>
				<g>
					<g>
						<path class="st0" d="M84.9,8.7L65.3,30.9h29.1L114,8.7H84.9z M89.6,23.6c-2.1,0-3.8-1.7-3.8-3.8s1.7-3.8,3.8-3.8
							c2.1,0,3.8,1.7,3.8,3.8S91.7,23.6,89.6,23.6z"/>
					</g>
				</g>
			</g>
		</g>
		<g>
			<path class="st0" d="M336.2,113.7h-28l-37.3-41.6l0,0h-21.4v41.5l-21.4-37.6V54.2h66.7c7.6,0,13.8-6.2,13.8-13.8
				c0-7.6-6.2-13.8-13.8-13.8h-66.7l0,0L218,8.6h81.2c17.5,0,31.8,14.2,31.8,31.8c0,17.5-14.2,31.8-31.8,31.8h-0.3l36.9,41.1
				L336.2,113.7z"/>
		</g>
		<g>
			<polygon class="st60" points="578.7,113.9 554.2,113.9 519.8,52.5 485.4,113.9 460.9,113.9 519.8,8.7 519.8,8.7 519.8,8.7 			"/>
		</g>
		<g>
			<path class="st60" d="M676.8,113.9h-28l-37.3-41.6l0,0h-21.4v41.5l-21.4-37.6V54.3h66.7c7.6,0,13.8-6.2,13.8-13.8
				c0-7.6-6.2-13.8-13.8-13.8h-66.7l0,0L558.6,8.7h81.2c17.5,0,31.8,14.2,31.8,31.8c0,17.5-14.2,31.8-31.8,31.8h-0.3l36.9,41.1
				L676.8,113.9z"/>
		</g>
		<g>
			<polygon class="st60" points="391.1,95.9 459.6,95.9 449.7,113.9 349.5,113.9 365.1,95.9 425.2,26.7 355.1,26.7 365.6,8.7 
				466.7,8.7 451.1,26.7 			"/>
		</g>
	</g>
</g>
<rect x="553.2" y="149.7" class="st60" width="123.6" height="2.6"/>
<rect x="13.6" y="149.7" class="st60" width="123.6" height="2.6"/>
<g>
	<g>
		<path class="st60" d="M170.1,149.9c0-0.6-0.1-1.3-0.3-1.9c-0.2-0.6-0.5-1.1-0.9-1.5c-0.4-0.4-0.9-0.8-1.4-1.1
			c-0.6-0.3-1.2-0.4-1.8-0.4h-12.3c-0.6,0-1.2,0.1-1.8,0.3c-0.6,0.2-1,0.5-1.5,0.9c-0.4,0.4-0.8,0.9-1,1.5c-0.2,0.6-0.3,1.2-0.3,2
			v5.3c0,0.7,0.1,1.3,0.4,1.8c0.2,0.5,0.6,1,1,1.4c0.4,0.4,0.9,0.7,1.5,0.9c0.6,0.2,1.2,0.3,1.8,0.3h12.3c0.5,0,1-0.1,1.5-0.3
			c0.5-0.2,1-0.6,1.5-1c0.4-0.4,0.8-1,1.1-1.6c0.3-0.6,0.4-1.3,0.4-2.1h2.5v0.5c0,0.8-0.2,1.7-0.5,2.5c-0.3,0.8-0.7,1.6-1.3,2.2
			s-1.2,1.2-2,1.6c-0.8,0.4-1.6,0.6-2.6,0.6h-14.1c-0.8,0-1.6-0.2-2.3-0.5c-0.7-0.3-1.4-0.7-1.9-1.3c-0.5-0.5-1-1.2-1.3-1.9
			c-0.3-0.7-0.5-1.5-0.5-2.3v-7.3c0-0.8,0.2-1.6,0.5-2.4c0.3-0.7,0.7-1.4,1.3-1.9c0.5-0.5,1.2-1,1.9-1.3c0.7-0.3,1.5-0.5,2.3-0.5
			h14.1c0.9,0,1.8,0.2,2.6,0.6c0.8,0.4,1.4,0.9,2,1.6s1,1.4,1.3,2.2c0.3,0.8,0.5,1.6,0.5,2.4v0.5H170.1z"/>
		<path class="st60" d="M206.5,142.6v13.3c0,0.8-0.2,1.6-0.5,2.3c-0.3,0.7-0.7,1.4-1.3,1.9c-0.5,0.5-1.2,1-1.9,1.3
			c-0.7,0.3-1.5,0.5-2.4,0.5H187c-0.8,0-1.6-0.2-2.3-0.5c-0.7-0.3-1.4-0.7-1.9-1.3c-0.5-0.5-1-1.2-1.3-1.9c-0.3-0.7-0.5-1.5-0.5-2.3
			v-13.3h2.5V155c0,0.7,0.1,1.3,0.4,1.8c0.3,0.5,0.6,1,1,1.4c0.4,0.4,0.9,0.7,1.4,0.9s1.1,0.3,1.7,0.3h11.5c0.6,0,1.2-0.1,1.8-0.3
			c0.6-0.2,1-0.5,1.5-0.9c0.4-0.4,0.7-0.9,1-1.4c0.2-0.5,0.4-1.2,0.4-1.8v-12.4H206.5z"/>
		<path class="st60" d="M240.7,142.5v2.5h-11.7v16.9h-2.5V145h-11.6v-2.5H240.7z"/>
		<path class="st60" d="M274.9,142.5v2.5h-11.7v16.9h-2.5V145h-11.6v-2.5H274.9z"/>
		<path class="st60" d="M285.2,142.5h2.5v19.4h-2.5V142.5z"/>
		<path class="st60" d="M320.8,159v-16.4h2.5v19.4h-3.1l-19.5-16.5v16.5h-2.5v-19.4h3.2L320.8,159z"/>
		<path class="st60" d="M358,146.9c-0.4-0.4-1-0.7-1.5-1c-0.6-0.2-1.2-0.4-1.9-0.6c-0.7-0.1-1.4-0.2-2.1-0.3c-0.7,0-1.5-0.1-2.3-0.1
			h-11.5c-0.7,0-1.3,0.1-1.8,0.3c-0.6,0.2-1.1,0.6-1.5,1c-0.4,0.4-0.7,0.9-1,1.4c-0.2,0.6-0.3,1.1-0.3,1.8v5.5
			c0,0.6,0.1,1.2,0.3,1.7c0.2,0.5,0.6,1,1,1.4c0.4,0.4,0.9,0.7,1.4,1c0.6,0.2,1.2,0.4,1.8,0.4H350c0.6,0,1.2-0.1,1.7-0.4
			c0.5-0.3,1-0.7,1.4-1.1c0.4-0.4,0.7-0.9,1-1.5c0.3-0.5,0.4-1.1,0.5-1.6c0.1-0.6,0.1-1,0-1.2c-0.1-0.2-0.2-0.3-0.3-0.3h-8.9v-2.5
			h9.2c1,0,1.8,0.2,2.2,0.6c0.4,0.4,0.7,1,0.7,1.8l0.3,6.2c0.1,1.3-1,2.5-2.4,2.4l0,0l-0.1-7.2h-0.3c0,1.1-0.2,2.1-0.6,2.9
			c-0.4,0.9-0.9,1.6-1.5,2.3c-0.6,0.6-1.3,1.1-2,1.5c-0.7,0.3-1.5,0.5-2.1,0.5h-11.1c-0.8,0-1.6-0.2-2.3-0.5
			c-0.7-0.3-1.4-0.7-1.9-1.3c-0.5-0.5-1-1.2-1.3-1.9c-0.3-0.7-0.5-1.5-0.5-2.3v-7.3c0-0.8,0.2-1.6,0.5-2.4s0.7-1.4,1.3-1.9
			c0.5-0.5,1.2-1,1.9-1.3c0.7-0.3,1.5-0.5,2.3-0.5h14.1c1.2,0,2.3,0.1,3.4,0.4c1.1,0.3,2.1,0.7,2.9,1.4V146.9z"/>
		<path class="st60" d="M409,142.5v2.5h-11.7v16.9h-2.5V145h-11.6v-2.5H409z"/>
		<path class="st60" d="M436.3,161.9h-13.5c-0.8,0-1.6-0.2-2.3-0.5c-0.7-0.3-1.4-0.7-1.9-1.3c-0.5-0.5-1-1.2-1.3-1.9
			c-0.3-0.7-0.5-1.5-0.5-2.3v-7.4c0-0.8,0.2-1.6,0.5-2.3s0.7-1.4,1.3-1.9c0.5-0.5,1.2-1,1.9-1.3c0.7-0.3,1.5-0.5,2.3-0.5h13.5
			c0.8,0,1.6,0.2,2.3,0.5c0.7,0.3,1.4,0.7,1.9,1.3c0.5,0.5,1,1.2,1.3,1.9s0.5,1.5,0.5,2.3v7.4c0,0.8-0.2,1.6-0.5,2.3
			c-0.3,0.7-0.7,1.4-1.3,1.9c-0.5,0.5-1.2,1-1.9,1.3C437.9,161.8,437.2,161.9,436.3,161.9z M439.9,154.9v-5.4c0-0.6-0.1-1.2-0.3-1.7
			c-0.2-0.5-0.5-1-0.9-1.5c-0.4-0.4-0.8-0.8-1.4-1s-1.1-0.4-1.8-0.4h-11.5c-0.7,0-1.3,0.1-1.9,0.3c-0.6,0.2-1.1,0.5-1.5,0.9
			c-0.4,0.4-0.7,0.9-1,1.4c-0.2,0.5-0.3,1.2-0.3,1.8v5.5c0,0.6,0.1,1.2,0.3,1.7c0.2,0.5,0.5,1,0.9,1.4c0.4,0.4,0.9,0.7,1.4,1
			c0.6,0.2,1.2,0.4,1.9,0.4h11.5c0.7,0,1.3-0.1,1.9-0.4c0.6-0.2,1-0.6,1.4-1c0.4-0.4,0.7-0.9,0.9-1.4
			C439.8,156.1,439.9,155.5,439.9,154.9z"/>
		<path class="st60" d="M470.2,161.9h-13.5c-0.8,0-1.6-0.2-2.3-0.5c-0.7-0.3-1.4-0.7-1.9-1.3c-0.5-0.5-1-1.2-1.3-1.9
			c-0.3-0.7-0.5-1.5-0.5-2.3v-7.4c0-0.8,0.2-1.6,0.5-2.3s0.7-1.4,1.3-1.9c0.5-0.5,1.2-1,1.9-1.3c0.7-0.3,1.5-0.5,2.3-0.5h13.5
			c0.8,0,1.6,0.2,2.3,0.5c0.7,0.3,1.4,0.7,1.9,1.3c0.5,0.5,1,1.2,1.3,1.9s0.5,1.5,0.5,2.3v7.4c0,0.8-0.2,1.6-0.5,2.3
			c-0.3,0.7-0.7,1.4-1.3,1.9c-0.5,0.5-1.2,1-1.9,1.3C471.8,161.8,471.1,161.9,470.2,161.9z M473.8,154.9v-5.4c0-0.6-0.1-1.2-0.3-1.7
			c-0.2-0.5-0.5-1-0.9-1.5c-0.4-0.4-0.8-0.8-1.4-1c-0.5-0.3-1.1-0.4-1.8-0.4h-11.5c-0.7,0-1.3,0.1-1.9,0.3c-0.6,0.2-1.1,0.5-1.5,0.9
			c-0.4,0.4-0.7,0.9-1,1.4c-0.2,0.5-0.3,1.2-0.3,1.8v5.5c0,0.6,0.1,1.2,0.3,1.7c0.2,0.5,0.5,1,0.9,1.4c0.4,0.4,0.9,0.7,1.4,1
			c0.6,0.2,1.2,0.4,1.9,0.4h11.5c0.7,0,1.3-0.1,1.9-0.4c0.6-0.2,1-0.6,1.4-1c0.4-0.4,0.7-0.9,0.9-1.4
			C473.7,156.1,473.8,155.5,473.8,154.9z"/>
		<path class="st60" d="M484.6,161.9l0-19.3h2.5v16.9h22.1v2.5L484.6,161.9z"/>
		<path class="st60" d="M541.7,149.3c0-0.4-0.1-0.9-0.3-1.4s-0.5-1-0.8-1.4c-0.4-0.4-0.8-0.8-1.4-1.1c-0.6-0.3-1.2-0.4-2-0.4h-12.9
			c-0.6,0-1.1,0.1-1.6,0.2c-0.5,0.2-0.9,0.4-1.3,0.7c-0.4,0.3-0.7,0.7-0.9,1.2c-0.2,0.5-0.3,1-0.3,1.6c0,0.8,0.3,1.4,1,1.8
			c0.7,0.4,1.8,0.6,3.3,0.6h13.5c0.9,0,1.7,0.1,2.4,0.2c0.7,0.2,1.4,0.4,1.9,0.8c0.6,0.4,1,0.9,1.3,1.5c0.3,0.6,0.5,1.4,0.5,2.3
			c0,0.8-0.2,1.6-0.5,2.3c-0.3,0.7-0.7,1.4-1.3,1.9c-0.5,0.5-1.2,1-1.9,1.3c-0.7,0.3-1.5,0.5-2.4,0.5h-14.1c-0.9,0-1.8-0.2-2.5-0.6
			c-0.8-0.4-1.4-0.9-2-1.6c-0.6-0.6-1-1.4-1.3-2.2c-0.3-0.8-0.5-1.6-0.5-2.4h2.5c0,0.4,0.1,0.8,0.2,1.3c0.2,0.5,0.4,1,0.8,1.4
			c0.4,0.4,0.8,0.8,1.4,1.1c0.6,0.3,1.3,0.4,2.1,0.4h12.7c0.6,0,1.2-0.1,1.7-0.3c0.5-0.2,0.9-0.5,1.3-0.8c0.4-0.3,0.6-0.7,0.8-1.2
			c0.2-0.4,0.3-0.9,0.3-1.3c0-0.5-0.1-0.9-0.3-1.2c-0.2-0.3-0.4-0.5-0.8-0.7c-0.3-0.2-0.8-0.3-1.3-0.3s-1.1-0.1-1.8-0.1h-13.2
			c-0.8,0-1.6-0.1-2.4-0.2c-0.8-0.2-1.5-0.4-2.1-0.8c-0.6-0.4-1.1-0.9-1.5-1.5c-0.4-0.6-0.6-1.4-0.6-2.3c0-0.8,0.2-1.6,0.5-2.4
			s0.7-1.4,1.3-1.9c0.5-0.5,1.2-1,1.9-1.3c0.7-0.3,1.5-0.5,2.3-0.5h14.1c0.9,0,1.8,0.2,2.6,0.6c0.8,0.4,1.4,0.9,2,1.6
			c0.5,0.6,1,1.4,1.3,2.2c0.3,0.8,0.5,1.6,0.5,2.4H541.7z"/>
	</g>
</g>
</svg>
